<?xml version="1.0" encoding="utf-8"?>
<!-- Generator: Adobe Illustrator 26.0.1, SVG Export Plug-In . SVG Version: 6.00 Build 0)  -->
<svg version="1.1" id="Layer_1" xmlns="http://www.w3.org/2000/svg" xmlns:xlink="http://www.w3.org/1999/xlink" x="0px" y="0px"
	 viewBox="0 0 197 26" style="enable-background:new 0 0 197 26;" xml:space="preserve">
<style type="text/css">
	.st0{fill:#231F20;}
</style>
<g>
	<g>
		<path d="M185.9,6.8c-5.7-1.2-9.7,0.9-11.2,5.7h-4.9c2.3-2.5,5-6.5,5.4-10.4c0.1-0.4-0.1-0.9-0.4-1.2s-0.7-0.5-1.2-0.6
			c-5-0.2-11.3,2.6-12.5,11.3c0,0.3,0,0.6,0.1,0.9h-7.8c2.3-2.5,5-6.5,5.4-10.4c0.1-0.4-0.1-0.9-0.4-1.2c-0.3-0.3-0.7-0.5-1.2-0.6
			c-5-0.2-11.3,2.6-12.5,11.3c0,0.3,0,0.6,0.1,0.9h-7.8c2.3-2.5,5-6.5,5.4-10.4c0.1-0.4-0.1-0.9-0.4-1.2c-0.3-0.3-0.7-0.5-1.2-0.6
			c-5-0.2-11.3,2.6-12.5,11.3c0,0.3,0,0.6,0.1,0.9h-5.3c0.3-4.2-2.2-7.3-4.9-8.2c-2.3-0.8-5.4-0.3-7.7,3.3c-2.3-3.5-5.4-4.1-7.7-3.3
			c-1.7,0.6-3.3,2-4.2,4c-0.9-2-2.5-3.4-4.2-4c-2.3-0.8-5.4-0.3-7.7,3.3C85.1,4,82,3.5,79.7,4.3c-2.7,0.9-5.2,4.1-4.9,8.3
			c-0.1-0.1-0.2-0.1-0.3-0.1h-6.4c0.1-0.3,0.2-0.6,0.1-0.9C67.1,2.9,60.9,0.1,55.8,0.3c-0.4,0-0.9,0.2-1.2,0.6
			c-0.3,0.3-0.4,0.8-0.4,1.2c0.5,3.9,3.1,7.9,5.4,10.4h-7.8c0.1-0.3,0.2-0.6,0.1-0.9C50.9,2.9,44.6,0.1,39.6,0.3
			c-0.4,0-0.9,0.2-1.2,0.6c-0.3,0.3-0.4,0.8-0.4,1.2c0.5,3.9,3.1,7.9,5.4,10.4h-7.8c0.1-0.3,0.2-0.6,0.1-0.9
			C34.7,2.9,28.4,0.1,23.4,0.3c-0.4,0-0.9,0.2-1.2,0.6c-0.3,0.3-0.4,0.8-0.4,1.2c0.5,3.9,3.1,7.9,5.4,10.4h-4.9
			c-1.5-4.8-5.5-6.9-11.2-5.7c-4.8,1-10.4,4.3-10.3,6.1c0,0.2,0.2,0.9,1.3,0.9c2.2,0,3,0.4,4.8,1.3c1.3,0.6,3,1.5,6,2.6
			c1.2,0.4,2.3,0.6,3.3,0.6c1.1,0,2.1-0.2,3-0.7c1.8-1,2.7-2.6,3-3.6h5c-0.7,1.3-2.2,4.1-5,7.7c-0.4,0.5-0.5,1.2-0.2,1.8
			c0.3,0.6,0.8,0.9,1.4,0.9c0.2,0,0.4,0,0.5,0c3.8,0,7.1-1.2,9.2-3.2c1.8-1.8,2.7-4.3,2.6-7.3h6.9c-2.1,2.5-4.2,6-4.6,9.4
			c-0.1,0.4,0.1,0.9,0.4,1.2c0.3,0.3,0.7,0.5,1.2,0.6c0.2,0,0.4,0,0.6,0c4.9,0,10.8-2.9,11.9-11.3h6.8c-2.1,2.5-4.2,6-4.6,9.4
			c-0.1,0.4,0.1,0.9,0.4,1.2c0.3,0.3,0.7,0.5,1.2,0.6c0.2,0,0.4,0,0.6,0c4.9,0,10.8-2.9,11.9-11.3h6.2c0.2,0,0.4-0.1,0.5-0.2
			c0,0,0,0.1,0,0.1c1.3,6.6,8.5,10.7,12.1,11.9c0,0,0,0,0,0c0.1,0,0.2,0,0.2,0s0.2,0,0.2,0c0,0,0,0,0,0c3.3-1.1,9.4-4.5,11.6-10.1
			c2.1,5.6,8.3,9,11.6,10.1c0,0,0,0,0,0c0.1,0,0.2,0,0.2,0s0.2,0,0.2,0c0,0,0,0,0,0c3.6-1.2,10.7-5.2,12.1-11.8h5.4
			c1.1,8.3,7,11.3,11.9,11.3c0.2,0,0.4,0,0.6,0c0.4,0,0.9-0.2,1.2-0.6c0.3-0.3,0.4-0.8,0.4-1.2c-0.4-3.4-2.5-6.9-4.6-9.4h6.8
			c1.1,8.3,7,11.3,11.9,11.3c0.2,0,0.4,0,0.6,0c0.5,0,0.9-0.2,1.2-0.6s0.4-0.8,0.4-1.2c-0.4-3.4-2.5-6.9-4.6-9.4h6.9
			c0,0,0,0.1,0,0.1c0.4,6.8,4.3,10.4,11.2,10.4c0.3,0,0.7,0,1.1,0c0.6,0,1.2-0.4,1.4-1c0.3-0.6,0.2-1.3-0.2-1.8
			c-2.8-3.7-4.3-6.4-5-7.7h5c0.3,0.9,1.2,2.6,3,3.6c0.9,0.5,1.9,0.7,3,0.7c1,0,2.1-0.2,3.3-0.6c3-1.1,4.7-1.9,6-2.6
			c1.8-0.9,2.6-1.3,4.8-1.3c1.1,0,1.3-0.8,1.3-0.9C196.3,11.1,190.7,7.8,185.9,6.8z M17.8,14h2.8c-0.3,0.7-1,1.7-2.1,2.3
			c-1.3,0.7-3,0.7-5,0c-2.9-1-4.6-1.9-5.9-2.5C6,13,4.9,12.4,2.8,12.4c1.6-1.5,7-4.5,11.7-4.3c3.1,0.1,5.2,1.6,6.2,4.5h-2.9
			c-0.4,0-0.8,0.3-0.8,0.8S17.4,14,17.8,14z M32.1,20.3c-2.6,2.6-6.9,2.8-8.6,2.7c0,0-0.1,0-0.1-0.1c0,0-0.1-0.1,0-0.2
			c3.4-4.6,5.1-7.7,5.5-8.6h1.8c-0.5,1.3-1.4,3.1-2.7,4.5c-0.3,0.3-0.3,0.8,0,1.1s0.8,0.3,1.1,0c1.7-1.7,2.7-4,3.2-5.5h2
			C34.3,16.7,33.6,18.8,32.1,20.3z M34.3,12c0,0-0.1,0.1-0.2,0.1h-1.7c-0.5-1.2-1.8-4.1-3.3-5.4c-0.3-0.3-0.8-0.2-1.1,0.1
			c-0.3,0.3-0.2,0.8,0.1,1.1c1,0.8,2,2.7,2.7,4.3H29c0,0-0.1,0-0.2-0.1c-2.3-2.3-5-6.2-5.5-10L22.6,2l0.9-0.2
			c1.6-0.1,9.6,0.1,10.9,10C34.3,11.9,34.3,11.9,34.3,12z M39.7,23.8l-0.1-0.1c0.4-3.6,2.9-7.3,5.1-9.6h2.1
			c-0.7,1.4-1.6,3.1-2.5,3.8c-0.3,0.3-0.4,0.7-0.1,1.1s0.7,0.4,1.1,0.1c1.4-1.1,2.6-3.6,3.1-4.9h2.1C49.1,23.7,41.2,23.9,39.7,23.8z
			 M50.5,12c0,0-0.1,0.1-0.2,0.1h-1.7c-0.5-1.2-1.8-4.1-3.3-5.4c-0.3-0.3-0.8-0.2-1.1,0.1S44,7.5,44.3,7.8c1,0.8,2,2.7,2.7,4.3h-1.8
			c0,0-0.1,0-0.2-0.1c-2.3-2.3-5-6.2-5.5-10L38.8,2l0.9-0.2c1.6-0.1,9.6,0.1,10.9,10C50.6,11.9,50.6,11.9,50.5,12z M55.9,23.8
			l-0.1-0.1c0.4-3.6,2.9-7.3,5.1-9.6H63c-0.7,1.4-1.6,3.1-2.5,3.8c-0.3,0.3-0.4,0.7-0.1,1.1s0.7,0.4,1.1,0.1
			c1.4-1.1,2.5-3.6,3.1-4.9h2.1C65.3,23.7,57.5,23.9,55.9,23.8z M66.7,12c0,0-0.1,0.1-0.2,0.1h-1.7c-0.5-1.2-1.8-4.1-3.3-5.4
			c-0.3-0.3-0.8-0.2-1.1,0.1c-0.3,0.3-0.2,0.8,0.1,1.1c1,0.8,2,2.7,2.7,4.3h-1.8c0,0-0.1,0-0.2-0.1c-2.3-2.3-5-6.2-5.5-10l0.1-0.1
			c1.6-0.1,9.6,0.1,10.9,10C66.8,11.9,66.8,11.9,66.7,12z M98.3,13.7c-1.2,5.8-7.5,9.5-10.9,10.7c-3.4-1.2-9.7-4.9-10.9-10.7
			c-0.8-4,1.3-7.1,3.7-7.9c2.5-0.9,4.9,0.5,6.5,3.7c0,0,0,0,0.1,0.1c0,0,0.1,0.1,0.1,0.1c0,0,0.1,0.1,0.1,0.1c0,0,0,0,0.1,0.1
			c0,0,0,0,0.1,0c0,0,0.1,0,0.1,0c0,0,0.1,0,0.1,0c0,0,0.1,0,0.1,0c0.1,0,0.1,0,0.2,0c0,0,0,0,0,0c0,0,0,0,0.1-0.1
			c0,0,0.1-0.1,0.1-0.1c0,0,0.1-0.1,0.1-0.1c0,0,0,0,0.1-0.1c1.6-3.2,4-4.6,6.5-3.7C97,6.6,99.1,9.6,98.3,13.7z M122.1,12.7
			c-0.2,0.1-0.3,0.3-0.3,0.6c0,0.2,0.1,0.3,0.2,0.4c-1.2,5.8-7.5,9.4-10.9,10.6c-3.4-1.2-9.7-4.9-10.9-10.7c-0.8-4,1.3-7.1,3.7-7.9
			c2.5-0.9,4.9,0.5,6.5,3.7c0,0,0,0,0.1,0.1c0,0,0.1,0.1,0.1,0.1c0,0,0.1,0.1,0.1,0.1c0,0,0,0,0.1,0.1c0,0,0,0,0,0c0,0,0.1,0,0.1,0
			c0,0,0.1,0,0.1,0c0,0,0.1,0,0.1,0c0.1,0,0.1,0,0.2,0c0,0,0,0,0,0c0,0,0,0,0.1-0.1c0,0,0.1-0.1,0.1-0.1c0,0,0.1-0.1,0.1-0.1
			c0,0,0,0,0.1-0.1c1.6-3.2,4-4.6,6.5-3.7C120.4,6.5,122.4,9.1,122.1,12.7z M141.1,1.8l0.1,0.1c-0.4,3.8-3.2,7.8-5.5,10
			c0,0-0.1,0.1-0.2,0.1h-1.8c0.7-1.5,1.7-3.5,2.7-4.3c0.3-0.3,0.4-0.7,0.1-1.1c-0.3-0.3-0.7-0.4-1.1-0.1c-1.5,1.3-2.9,4.3-3.3,5.4
			h-1.7c-0.1,0-0.2-0.1-0.2-0.1c0,0-0.1-0.1,0-0.2C131.5,1.9,139.5,1.8,141.1,1.8z M141.2,23.7l0.7-0.1l-0.9,0.2
			c-1.6,0.1-9.5-0.1-10.9-9.7h2.1c0.6,1.4,1.8,3.8,3.1,4.9c0.3,0.3,0.8,0.2,1.1-0.1c0.3-0.3,0.2-0.8-0.1-1.1
			c-0.9-0.7-1.8-2.3-2.5-3.8h2.1C138.3,16.4,140.8,20.1,141.2,23.7z M157.3,1.8l0.1,0.1c-0.4,3.8-3.2,7.8-5.5,10
			c0,0-0.1,0.1-0.1,0.1H150c0.7-1.5,1.7-3.5,2.7-4.3c0.3-0.3,0.4-0.7,0.1-1.1c-0.3-0.3-0.7-0.4-1.1-0.1c-1.5,1.3-2.9,4.3-3.3,5.4
			h-1.7c-0.1,0-0.2-0.1-0.2-0.1c0,0-0.1-0.1,0-0.2C147.7,1.9,155.8,1.8,157.3,1.8z M157.5,23.7l-0.1,0.1c-1.6,0.1-9.5-0.1-10.9-9.7
			h2.1c0.6,1.4,1.8,3.8,3.1,4.9c0.3,0.3,0.8,0.2,1.1-0.1s0.2-0.8-0.1-1.1c-0.9-0.7-1.8-2.3-2.5-3.8h2.1
			C154.5,16.4,157,20.1,157.5,23.7z M162.7,11.8c1.3-9.9,9.3-10.1,10.9-10l0.1,0.1c-0.4,3.8-3.2,7.8-5.5,10c0,0.1-0.1,0.1-0.2,0.1
			h-1.8c0.7-1.5,1.7-3.5,2.7-4.3c0.3-0.3,0.4-0.7,0.1-1.1c-0.3-0.3-0.7-0.4-1.1-0.1c-1.5,1.3-2.9,4.3-3.3,5.4h-1.7
			c-0.1,0-0.2-0.1-0.2-0.1C162.7,11.9,162.7,11.9,162.7,11.8z M173.6,22.7c0.1,0.1,0,0.2,0,0.3c0,0.1-0.1,0.1-0.1,0.1
			c-6.8,0.3-10.4-2.7-10.7-9c0,0,0,0,0,0h2c0.5,1.5,1.5,3.9,3.2,5.5c0.3,0.3,0.8,0.3,1.1,0c0.3-0.3,0.3-0.8,0-1.1
			c-1.3-1.3-2.2-3.1-2.7-4.5h1.8C168.5,14.9,170.2,18.1,173.6,22.7z M189.4,13.8c-1.2,0.6-2.9,1.5-5.9,2.5c-2,0.7-3.7,0.7-5.1,0
			c-1.1-0.6-1.7-1.5-2.1-2.3h2.8c0.4,0,0.8-0.3,0.8-0.8s-0.3-0.8-0.8-0.8h-2.9c1.1-2.9,3.2-4.4,6.3-4.5c0.1,0,0.3,0,0.4,0
			c4.6,0,9.7,2.9,11.3,4.3C192.1,12.4,191,13,189.4,13.8z"/>
		<path d="M79.6,16.4c0.4,1.8,1.9,3.4,3.7,3.6C82.1,18.6,81.2,17.5,79.6,16.4z"/>
		<path d="M117.4,6.9c1.1,1.5,1.9,2.8,3.4,4C120.5,9.1,119.2,7.3,117.4,6.9z"/>
	</g>
	<g>
		<path class="st0" d="M185.9,6.8c-5.7-1.2-9.7,0.9-11.2,5.7h-4.9c2.3-2.5,5-6.5,5.4-10.4c0.1-0.4-0.1-0.9-0.4-1.2s-0.7-0.5-1.2-0.6
			c-5-0.2-11.3,2.6-12.5,11.3c0,0.3,0,0.6,0.1,0.9h-7.8c2.3-2.5,5-6.5,5.4-10.4c0.1-0.4-0.1-0.9-0.4-1.2c-0.3-0.3-0.7-0.5-1.2-0.6
			c-5-0.2-11.3,2.6-12.5,11.3c0,0.3,0,0.6,0.1,0.9h-7.8c2.3-2.5,5-6.5,5.4-10.4c0.1-0.4-0.1-0.9-0.4-1.2c-0.3-0.3-0.7-0.5-1.2-0.6
			c-5-0.2-11.3,2.6-12.5,11.3c0,0.3,0,0.6,0.1,0.9h-5.3c0.3-4.2-2.2-7.3-4.9-8.2c-2.3-0.8-5.4-0.3-7.7,3.3c-2.3-3.5-5.4-4.1-7.7-3.3
			c-1.7,0.6-3.3,2-4.2,4c-0.9-2-2.5-3.4-4.2-4c-2.3-0.8-5.4-0.3-7.7,3.3C85.1,4,82,3.5,79.7,4.3c-2.7,0.9-5.2,4.1-4.9,8.3
			c-0.1-0.1-0.2-0.1-0.3-0.1h-6.4c0.1-0.3,0.2-0.6,0.1-0.9C67.1,2.9,60.9,0.1,55.8,0.3c-0.4,0-0.9,0.2-1.2,0.6
			c-0.3,0.3-0.4,0.8-0.4,1.2c0.5,3.9,3.1,7.9,5.4,10.4h-7.8c0.1-0.3,0.2-0.6,0.1-0.9C50.9,2.9,44.6,0.1,39.6,0.3
			c-0.4,0-0.9,0.2-1.2,0.6c-0.3,0.3-0.4,0.8-0.4,1.2c0.5,3.9,3.1,7.9,5.4,10.4h-7.8c0.1-0.3,0.2-0.6,0.1-0.9
			C34.7,2.9,28.4,0.1,23.4,0.3c-0.4,0-0.9,0.2-1.2,0.6c-0.3,0.3-0.4,0.8-0.4,1.2c0.5,3.9,3.1,7.9,5.4,10.4h-4.9
			c-1.5-4.8-5.5-6.9-11.2-5.7c-4.8,1-10.4,4.3-10.3,6.1c0,0.2,0.2,0.9,1.3,0.9c2.2,0,3,0.4,4.8,1.3c1.3,0.6,3,1.5,6,2.6
			c1.2,0.4,2.3,0.6,3.3,0.6c1.1,0,2.1-0.2,3-0.7c1.8-1,2.7-2.6,3-3.6h5c-0.7,1.3-2.2,4.1-5,7.7c-0.4,0.5-0.5,1.2-0.2,1.8
			c0.3,0.6,0.8,0.9,1.4,0.9c0.2,0,0.4,0,0.5,0c3.8,0,7.1-1.2,9.2-3.2c1.8-1.8,2.7-4.3,2.6-7.3h6.9c-2.1,2.5-4.2,6-4.6,9.4
			c-0.1,0.4,0.1,0.9,0.4,1.2c0.3,0.3,0.7,0.5,1.2,0.6c0.2,0,0.4,0,0.6,0c4.9,0,10.8-2.9,11.9-11.3h6.8c-2.1,2.5-4.2,6-4.6,9.4
			c-0.1,0.4,0.1,0.9,0.4,1.2c0.3,0.3,0.7,0.5,1.2,0.6c0.2,0,0.4,0,0.6,0c4.9,0,10.8-2.9,11.9-11.3h6.2c0.2,0,0.4-0.1,0.5-0.2
			c0,0,0,0.1,0,0.1c1.3,6.6,8.5,10.7,12.1,11.9c0,0,0,0,0,0c0.1,0,0.2,0,0.2,0s0.2,0,0.2,0c0,0,0,0,0,0c3.3-1.1,9.4-4.5,11.6-10.1
			c2.1,5.6,8.3,9,11.6,10.1c0,0,0,0,0,0c0.1,0,0.2,0,0.2,0s0.2,0,0.2,0c0,0,0,0,0,0c3.6-1.2,10.7-5.2,12.1-11.8h5.4
			c1.1,8.3,7,11.3,11.9,11.3c0.2,0,0.4,0,0.6,0c0.4,0,0.9-0.2,1.2-0.6c0.3-0.3,0.4-0.8,0.4-1.2c-0.4-3.4-2.5-6.9-4.6-9.4h6.8
			c1.1,8.3,7,11.3,11.9,11.3c0.2,0,0.4,0,0.6,0c0.5,0,0.9-0.2,1.2-0.6s0.4-0.8,0.4-1.2c-0.4-3.4-2.5-6.9-4.6-9.4h6.9
			c0,0,0,0.1,0,0.1c0.4,6.8,4.3,10.4,11.2,10.4c0.3,0,0.7,0,1.1,0c0.6,0,1.2-0.4,1.4-1c0.3-0.6,0.2-1.3-0.2-1.8
			c-2.8-3.7-4.3-6.4-5-7.7h5c0.3,0.9,1.2,2.6,3,3.6c0.9,0.5,1.9,0.7,3,0.7c1,0,2.1-0.2,3.3-0.6c3-1.1,4.7-1.9,6-2.6
			c1.8-0.9,2.6-1.3,4.8-1.3c1.1,0,1.3-0.8,1.3-0.9C196.3,11.1,190.7,7.8,185.9,6.8z M17.8,14h2.8c-0.3,0.7-1,1.7-2.1,2.3
			c-1.3,0.7-3,0.7-5,0c-2.9-1-4.6-1.9-5.9-2.5C6,13,4.9,12.4,2.8,12.4c1.6-1.5,7-4.5,11.7-4.3c3.1,0.1,5.2,1.6,6.2,4.5h-2.9
			c-0.4,0-0.8,0.3-0.8,0.8S17.4,14,17.8,14z M32.1,20.3c-2.6,2.6-6.9,2.8-8.6,2.7c0,0-0.1,0-0.1-0.1c0,0-0.1-0.1,0-0.2
			c3.4-4.6,5.1-7.7,5.5-8.6h1.8c-0.5,1.3-1.4,3.1-2.7,4.5c-0.3,0.3-0.3,0.8,0,1.1s0.8,0.3,1.1,0c1.7-1.7,2.7-4,3.2-5.5h2
			C34.3,16.7,33.6,18.8,32.1,20.3z M34.3,12c0,0-0.1,0.1-0.2,0.1h-1.7c-0.5-1.2-1.8-4.1-3.3-5.4c-0.3-0.3-0.8-0.2-1.1,0.1
			c-0.3,0.3-0.2,0.8,0.1,1.1c1,0.8,2,2.7,2.7,4.3H29c0,0-0.1,0-0.2-0.1c-2.3-2.3-5-6.2-5.5-10L22.6,2l0.9-0.2
			c1.6-0.1,9.6,0.1,10.9,10C34.3,11.9,34.3,11.9,34.3,12z M39.7,23.8l-0.1-0.1c0.4-3.6,2.9-7.3,5.1-9.6h2.1
			c-0.7,1.4-1.6,3.1-2.5,3.8c-0.3,0.3-0.4,0.7-0.1,1.1s0.7,0.4,1.1,0.1c1.4-1.1,2.6-3.6,3.1-4.9h2.1C49.1,23.7,41.2,23.9,39.7,23.8z
			 M50.5,12c0,0-0.1,0.1-0.2,0.1h-1.7c-0.5-1.2-1.8-4.1-3.3-5.4c-0.3-0.3-0.8-0.2-1.1,0.1S44,7.5,44.3,7.8c1,0.8,2,2.7,2.7,4.3h-1.8
			c0,0-0.1,0-0.2-0.1c-2.3-2.3-5-6.2-5.5-10L38.8,2l0.9-0.2c1.6-0.1,9.6,0.1,10.9,10C50.6,11.9,50.6,11.9,50.5,12z M55.9,23.8
			l-0.1-0.1c0.4-3.6,2.9-7.3,5.1-9.6H63c-0.7,1.4-1.6,3.1-2.5,3.8c-0.3,0.3-0.4,0.7-0.1,1.1s0.7,0.4,1.1,0.1
			c1.4-1.1,2.5-3.6,3.1-4.9h2.1C65.3,23.7,57.5,23.9,55.9,23.8z M66.7,12c0,0-0.1,0.1-0.2,0.1h-1.7c-0.5-1.2-1.8-4.1-3.3-5.4
			c-0.3-0.3-0.8-0.2-1.1,0.1c-0.3,0.3-0.2,0.8,0.1,1.1c1,0.8,2,2.7,2.7,4.3h-1.8c0,0-0.1,0-0.2-0.1c-2.3-2.3-5-6.2-5.5-10l0.1-0.1
			c1.6-0.1,9.6,0.1,10.9,10C66.8,11.9,66.8,11.9,66.7,12z M98.3,13.7c-1.2,5.8-7.5,9.5-10.9,10.7c-3.4-1.2-9.7-4.9-10.9-10.7
			c-0.8-4,1.3-7.1,3.7-7.9c2.5-0.9,4.9,0.5,6.5,3.7c0,0,0,0,0.1,0.1c0,0,0.1,0.1,0.1,0.1c0,0,0.1,0.1,0.1,0.1c0,0,0,0,0.1,0.1
			c0,0,0,0,0.1,0c0,0,0.1,0,0.1,0c0,0,0.1,0,0.1,0c0,0,0.1,0,0.1,0c0.1,0,0.1,0,0.2,0c0,0,0,0,0,0c0,0,0,0,0.1-0.1
			c0,0,0.1-0.1,0.1-0.1c0,0,0.1-0.1,0.1-0.1c0,0,0,0,0.1-0.1c1.6-3.2,4-4.6,6.5-3.7C97,6.6,99.1,9.6,98.3,13.7z M122.1,12.7
			c-0.2,0.1-0.3,0.3-0.3,0.6c0,0.2,0.1,0.3,0.2,0.4c-1.2,5.8-7.5,9.4-10.9,10.6c-3.4-1.2-9.7-4.9-10.9-10.7c-0.8-4,1.3-7.1,3.7-7.9
			c2.5-0.9,4.9,0.5,6.5,3.7c0,0,0,0,0.1,0.1c0,0,0.1,0.1,0.1,0.1c0,0,0.1,0.1,0.1,0.1c0,0,0,0,0.1,0.1c0,0,0,0,0,0c0,0,0.1,0,0.1,0
			c0,0,0.1,0,0.1,0c0,0,0.1,0,0.1,0c0.1,0,0.1,0,0.2,0c0,0,0,0,0,0c0,0,0,0,0.1-0.1c0,0,0.1-0.1,0.1-0.1c0,0,0.1-0.1,0.1-0.1
			c0,0,0,0,0.1-0.1c1.6-3.2,4-4.6,6.5-3.7C120.4,6.5,122.4,9.1,122.1,12.7z M141.1,1.8l0.1,0.1c-0.4,3.8-3.2,7.8-5.5,10
			c0,0-0.1,0.1-0.2,0.1h-1.8c0.7-1.5,1.7-3.5,2.7-4.3c0.3-0.3,0.4-0.7,0.1-1.1c-0.3-0.3-0.7-0.4-1.1-0.1c-1.5,1.3-2.9,4.3-3.3,5.4
			h-1.7c-0.1,0-0.2-0.1-0.2-0.1c0,0-0.1-0.1,0-0.2C131.5,1.9,139.5,1.8,141.1,1.8z M141.2,23.7l0.7-0.1l-0.9,0.2
			c-1.6,0.1-9.5-0.1-10.9-9.7h2.1c0.6,1.4,1.8,3.8,3.1,4.9c0.3,0.3,0.8,0.2,1.1-0.1c0.3-0.3,0.2-0.8-0.1-1.1
			c-0.9-0.7-1.8-2.3-2.5-3.8h2.1C138.3,16.4,140.8,20.1,141.2,23.7z M157.3,1.8l0.1,0.1c-0.4,3.8-3.2,7.8-5.5,10
			c0,0-0.1,0.1-0.1,0.1H150c0.7-1.5,1.7-3.5,2.7-4.3c0.3-0.3,0.4-0.7,0.1-1.1c-0.3-0.3-0.7-0.4-1.1-0.1c-1.5,1.3-2.9,4.3-3.3,5.4
			h-1.7c-0.1,0-0.2-0.1-0.2-0.1c0,0-0.1-0.1,0-0.2C147.7,1.9,155.8,1.8,157.3,1.8z M157.5,23.7l-0.1,0.1c-1.6,0.1-9.5-0.1-10.9-9.7
			h2.1c0.6,1.4,1.8,3.8,3.1,4.9c0.3,0.3,0.8,0.2,1.1-0.1s0.2-0.8-0.1-1.1c-0.9-0.7-1.8-2.3-2.5-3.8h2.1
			C154.5,16.4,157,20.1,157.5,23.7z M162.7,11.8c1.3-9.9,9.3-10.1,10.9-10l0.1,0.1c-0.4,3.8-3.2,7.8-5.5,10c0,0.1-0.1,0.1-0.2,0.1
			h-1.8c0.7-1.5,1.7-3.5,2.7-4.3c0.3-0.3,0.4-0.7,0.1-1.1c-0.3-0.3-0.7-0.4-1.1-0.1c-1.5,1.3-2.9,4.3-3.3,5.4h-1.7
			c-0.1,0-0.2-0.1-0.2-0.1C162.7,11.9,162.7,11.9,162.7,11.8z M173.6,22.7c0.1,0.1,0,0.2,0,0.3c0,0.1-0.1,0.1-0.1,0.1
			c-6.8,0.3-10.4-2.7-10.7-9c0,0,0,0,0,0h2c0.5,1.5,1.5,3.9,3.2,5.5c0.3,0.3,0.8,0.3,1.1,0c0.3-0.3,0.3-0.8,0-1.1
			c-1.3-1.3-2.2-3.1-2.7-4.5h1.8C168.5,14.9,170.2,18.1,173.6,22.7z M189.4,13.8c-1.2,0.6-2.9,1.5-5.9,2.5c-2,0.7-3.7,0.7-5.1,0
			c-1.1-0.6-1.7-1.5-2.1-2.3h2.8c0.4,0,0.8-0.3,0.8-0.8s-0.3-0.8-0.8-0.8h-2.9c1.1-2.9,3.2-4.4,6.3-4.5c0.1,0,0.3,0,0.4,0
			c4.6,0,9.7,2.9,11.3,4.3C192.1,12.4,191,13,189.4,13.8z"/>
		<path class="st0" d="M79.6,16.4c0.4,1.8,1.9,3.4,3.7,3.6C82.1,18.6,81.2,17.5,79.6,16.4z"/>
		<path class="st0" d="M117.4,6.9c1.1,1.5,1.9,2.8,3.4,4C120.5,9.1,119.2,7.3,117.4,6.9z"/>
	</g>
	<g>
		<path class="st0" d="M185.9,6.8c-5.7-1.2-9.7,0.9-11.2,5.7h-4.9c2.3-2.5,5-6.5,5.4-10.4c0.1-0.4-0.1-0.9-0.4-1.2s-0.7-0.5-1.2-0.6
			c-5-0.2-11.3,2.6-12.5,11.3c0,0.3,0,0.6,0.1,0.9h-7.8c2.3-2.5,5-6.5,5.4-10.4c0.1-0.4-0.1-0.9-0.4-1.2c-0.3-0.3-0.7-0.5-1.2-0.6
			c-5-0.2-11.3,2.6-12.5,11.3c0,0.3,0,0.6,0.1,0.9h-7.8c2.3-2.5,5-6.5,5.4-10.4c0.1-0.4-0.1-0.9-0.4-1.2c-0.3-0.3-0.7-0.5-1.2-0.6
			c-5-0.2-11.3,2.6-12.5,11.3c0,0.3,0,0.6,0.1,0.9h-5.3c0.3-4.2-2.2-7.3-4.9-8.2c-2.3-0.8-5.4-0.3-7.7,3.3c-2.3-3.5-5.4-4.1-7.7-3.3
			c-1.7,0.6-3.3,2-4.2,4c-0.9-2-2.5-3.4-4.2-4c-2.3-0.8-5.4-0.3-7.7,3.3C85.1,4,82,3.5,79.7,4.3c-2.7,0.9-5.2,4.1-4.9,8.3
			c-0.1-0.1-0.2-0.1-0.3-0.1h-6.4c0.1-0.3,0.2-0.6,0.1-0.9C67.1,2.9,60.9,0.1,55.8,0.3c-0.4,0-0.9,0.2-1.2,0.6
			c-0.3,0.3-0.4,0.8-0.4,1.2c0.5,3.9,3.1,7.9,5.4,10.4h-7.8c0.1-0.3,0.2-0.6,0.1-0.9C50.9,2.9,44.6,0.1,39.6,0.3
			c-0.4,0-0.9,0.2-1.2,0.6c-0.3,0.3-0.4,0.8-0.4,1.2c0.5,3.9,3.1,7.9,5.4,10.4h-7.8c0.1-0.3,0.2-0.6,0.1-0.9
			C34.7,2.9,28.4,0.1,23.4,0.3c-0.4,0-0.9,0.2-1.2,0.6c-0.3,0.3-0.4,0.8-0.4,1.2c0.5,3.9,3.1,7.9,5.4,10.4h-4.9
			c-1.5-4.8-5.5-6.9-11.2-5.7c-4.8,1-10.4,4.3-10.3,6.1c0,0.2,0.2,0.9,1.3,0.9c2.2,0,3,0.4,4.8,1.3c1.3,0.6,3,1.5,6,2.6
			c1.2,0.4,2.3,0.6,3.3,0.6c1.1,0,2.1-0.2,3-0.7c1.8-1,2.7-2.6,3-3.6h5c-0.7,1.3-2.2,4.1-5,7.7c-0.4,0.5-0.5,1.2-0.2,1.8
			c0.3,0.6,0.8,0.9,1.4,0.9c0.2,0,0.4,0,0.5,0c3.8,0,7.1-1.2,9.2-3.2c1.8-1.8,2.7-4.3,2.6-7.3h6.9c-2.1,2.5-4.2,6-4.6,9.4
			c-0.1,0.4,0.1,0.9,0.4,1.2c0.3,0.3,0.7,0.5,1.2,0.6c0.2,0,0.4,0,0.6,0c4.9,0,10.8-2.9,11.9-11.3h6.8c-2.1,2.5-4.2,6-4.6,9.4
			c-0.1,0.4,0.1,0.9,0.4,1.2c0.3,0.3,0.7,0.5,1.2,0.6c0.2,0,0.4,0,0.6,0c4.9,0,10.8-2.9,11.9-11.3h6.2c0.2,0,0.4-0.1,0.5-0.2
			c0,0,0,0.1,0,0.1c1.3,6.6,8.5,10.7,12.1,11.9c0,0,0,0,0,0c0.1,0,0.2,0,0.2,0s0.2,0,0.2,0c0,0,0,0,0,0c3.3-1.1,9.4-4.5,11.6-10.1
			c2.1,5.6,8.3,9,11.6,10.1c0,0,0,0,0,0c0.1,0,0.2,0,0.2,0s0.2,0,0.2,0c0,0,0,0,0,0c3.6-1.2,10.7-5.2,12.1-11.8h5.4
			c1.1,8.3,7,11.3,11.9,11.3c0.2,0,0.4,0,0.6,0c0.4,0,0.9-0.2,1.2-0.6c0.3-0.3,0.4-0.8,0.4-1.2c-0.4-3.4-2.5-6.9-4.6-9.4h6.8
			c1.1,8.3,7,11.3,11.9,11.3c0.2,0,0.4,0,0.6,0c0.5,0,0.9-0.2,1.2-0.6s0.4-0.8,0.4-1.2c-0.4-3.4-2.5-6.9-4.6-9.4h6.9
			c0,0,0,0.1,0,0.1c0.4,6.8,4.3,10.4,11.2,10.4c0.3,0,0.7,0,1.1,0c0.6,0,1.2-0.4,1.4-1c0.3-0.6,0.2-1.3-0.2-1.8
			c-2.8-3.7-4.3-6.4-5-7.7h5c0.3,0.9,1.2,2.6,3,3.6c0.9,0.5,1.9,0.7,3,0.7c1,0,2.1-0.2,3.3-0.6c3-1.1,4.7-1.9,6-2.6
			c1.8-0.9,2.6-1.3,4.8-1.3c1.1,0,1.3-0.8,1.3-0.9C196.3,11.1,190.7,7.8,185.9,6.8z M17.8,14h2.8c-0.3,0.7-1,1.7-2.1,2.3
			c-1.3,0.7-3,0.7-5,0c-2.9-1-4.6-1.9-5.9-2.5C6,13,4.9,12.4,2.8,12.4c1.6-1.5,7-4.5,11.7-4.3c3.1,0.1,5.2,1.6,6.2,4.5h-2.9
			c-0.4,0-0.8,0.3-0.8,0.8S17.4,14,17.8,14z M32.1,20.3c-2.6,2.6-6.9,2.8-8.6,2.7c0,0-0.1,0-0.1-0.1c0,0-0.1-0.1,0-0.2
			c3.4-4.6,5.1-7.7,5.5-8.6h1.8c-0.5,1.3-1.4,3.1-2.7,4.5c-0.3,0.3-0.3,0.8,0,1.1s0.8,0.3,1.1,0c1.7-1.7,2.7-4,3.2-5.5h2
			C34.3,16.7,33.6,18.8,32.1,20.3z M34.3,12c0,0-0.1,0.1-0.2,0.1h-1.7c-0.5-1.2-1.8-4.1-3.3-5.4c-0.3-0.3-0.8-0.2-1.1,0.1
			c-0.3,0.3-0.2,0.8,0.1,1.1c1,0.8,2,2.7,2.7,4.3H29c0,0-0.1,0-0.2-0.1c-2.3-2.3-5-6.2-5.5-10L22.6,2l0.9-0.2
			c1.6-0.1,9.6,0.1,10.9,10C34.3,11.9,34.3,11.9,34.3,12z M39.7,23.8l-0.1-0.1c0.4-3.6,2.9-7.3,5.1-9.6h2.1
			c-0.7,1.4-1.6,3.1-2.5,3.8c-0.3,0.3-0.4,0.7-0.1,1.1s0.7,0.4,1.1,0.1c1.4-1.1,2.6-3.6,3.1-4.9h2.1C49.1,23.7,41.2,23.9,39.7,23.8z
			 M50.5,12c0,0-0.1,0.1-0.2,0.1h-1.7c-0.5-1.2-1.8-4.1-3.3-5.4c-0.3-0.3-0.8-0.2-1.1,0.1S44,7.5,44.3,7.8c1,0.8,2,2.7,2.7,4.3h-1.8
			c0,0-0.1,0-0.2-0.1c-2.3-2.3-5-6.2-5.5-10L38.8,2l0.9-0.2c1.6-0.1,9.6,0.1,10.9,10C50.6,11.9,50.6,11.9,50.5,12z M55.9,23.8
			l-0.1-0.1c0.4-3.6,2.9-7.3,5.1-9.6H63c-0.7,1.4-1.6,3.1-2.5,3.8c-0.3,0.3-0.4,0.7-0.1,1.1s0.7,0.4,1.1,0.1
			c1.4-1.1,2.5-3.6,3.1-4.9h2.1C65.3,23.7,57.5,23.9,55.9,23.8z M66.7,12c0,0-0.1,0.1-0.2,0.1h-1.7c-0.5-1.2-1.8-4.1-3.3-5.4
			c-0.3-0.3-0.8-0.2-1.1,0.1c-0.3,0.3-0.2,0.8,0.1,1.1c1,0.8,2,2.7,2.7,4.3h-1.8c0,0-0.1,0-0.2-0.1c-2.3-2.3-5-6.2-5.5-10l0.1-0.1
			c1.6-0.1,9.6,0.1,10.9,10C66.8,11.9,66.8,11.9,66.7,12z M98.3,13.7c-1.2,5.8-7.5,9.5-10.9,10.7c-3.4-1.2-9.7-4.9-10.9-10.7
			c-0.8-4,1.3-7.1,3.7-7.9c2.5-0.9,4.9,0.5,6.5,3.7c0,0,0,0,0.1,0.1c0,0,0.1,0.1,0.1,0.1c0,0,0.1,0.1,0.1,0.1c0,0,0,0,0.1,0.1
			c0,0,0,0,0.1,0c0,0,0.1,0,0.1,0c0,0,0.1,0,0.1,0c0,0,0.1,0,0.1,0c0.1,0,0.1,0,0.2,0c0,0,0,0,0,0c0,0,0,0,0.1-0.1
			c0,0,0.1-0.1,0.1-0.1c0,0,0.1-0.1,0.1-0.1c0,0,0,0,0.1-0.1c1.6-3.2,4-4.6,6.5-3.7C97,6.6,99.1,9.6,98.3,13.7z M122.1,12.7
			c-0.2,0.1-0.3,0.3-0.3,0.6c0,0.2,0.1,0.3,0.2,0.4c-1.2,5.8-7.5,9.4-10.9,10.6c-3.4-1.2-9.7-4.9-10.9-10.7c-0.8-4,1.3-7.1,3.7-7.9
			c2.5-0.9,4.9,0.5,6.5,3.7c0,0,0,0,0.1,0.1c0,0,0.1,0.1,0.1,0.1c0,0,0.1,0.1,0.1,0.1c0,0,0,0,0.1,0.1c0,0,0,0,0,0c0,0,0.1,0,0.1,0
			c0,0,0.1,0,0.1,0c0,0,0.1,0,0.1,0c0.1,0,0.1,0,0.2,0c0,0,0,0,0,0c0,0,0,0,0.1-0.1c0,0,0.1-0.1,0.1-0.1c0,0,0.1-0.1,0.1-0.1
			c0,0,0,0,0.1-0.1c1.6-3.2,4-4.6,6.5-3.7C120.4,6.5,122.4,9.1,122.1,12.7z M141.1,1.8l0.1,0.1c-0.4,3.8-3.2,7.8-5.5,10
			c0,0-0.1,0.1-0.2,0.1h-1.8c0.7-1.5,1.7-3.5,2.7-4.3c0.3-0.3,0.4-0.7,0.1-1.1c-0.3-0.3-0.7-0.4-1.1-0.1c-1.5,1.3-2.9,4.3-3.3,5.4
			h-1.7c-0.1,0-0.2-0.1-0.2-0.1c0,0-0.1-0.1,0-0.2C131.5,1.9,139.5,1.8,141.1,1.8z M141.2,23.7l0.7-0.1l-0.9,0.2
			c-1.6,0.1-9.5-0.1-10.9-9.7h2.1c0.6,1.4,1.8,3.8,3.1,4.9c0.3,0.3,0.8,0.2,1.1-0.1c0.3-0.3,0.2-0.8-0.1-1.1
			c-0.9-0.7-1.8-2.3-2.5-3.8h2.1C138.3,16.4,140.8,20.1,141.2,23.7z M157.3,1.8l0.1,0.1c-0.4,3.8-3.2,7.8-5.5,10
			c0,0-0.1,0.1-0.1,0.1H150c0.7-1.5,1.7-3.5,2.7-4.3c0.3-0.3,0.4-0.7,0.1-1.1c-0.3-0.3-0.7-0.4-1.1-0.1c-1.5,1.3-2.9,4.3-3.3,5.4
			h-1.7c-0.1,0-0.2-0.1-0.2-0.1c0,0-0.1-0.1,0-0.2C147.7,1.9,155.8,1.8,157.3,1.8z M157.5,23.7l-0.1,0.1c-1.6,0.1-9.5-0.1-10.9-9.7
			h2.1c0.6,1.4,1.8,3.8,3.1,4.9c0.3,0.3,0.8,0.2,1.1-0.1s0.2-0.8-0.1-1.1c-0.9-0.7-1.8-2.3-2.5-3.8h2.1
			C154.5,16.4,157,20.1,157.5,23.7z M162.7,11.8c1.3-9.9,9.3-10.1,10.9-10l0.1,0.1c-0.4,3.8-3.2,7.8-5.5,10c0,0.1-0.1,0.1-0.2,0.1
			h-1.8c0.7-1.5,1.7-3.5,2.7-4.3c0.3-0.3,0.4-0.7,0.1-1.1c-0.3-0.3-0.7-0.4-1.1-0.1c-1.5,1.3-2.9,4.3-3.3,5.4h-1.7
			c-0.1,0-0.2-0.1-0.2-0.1C162.7,11.9,162.7,11.9,162.7,11.8z M173.6,22.7c0.1,0.1,0,0.2,0,0.3c0,0.1-0.1,0.1-0.1,0.1
			c-6.8,0.3-10.4-2.7-10.7-9c0,0,0,0,0,0h2c0.5,1.5,1.5,3.9,3.2,5.5c0.3,0.3,0.8,0.3,1.1,0c0.3-0.3,0.3-0.8,0-1.1
			c-1.3-1.3-2.2-3.1-2.7-4.5h1.8C168.5,14.9,170.2,18.1,173.6,22.7z M189.4,13.8c-1.2,0.6-2.9,1.5-5.9,2.5c-2,0.7-3.7,0.7-5.1,0
			c-1.1-0.6-1.7-1.5-2.1-2.3h2.8c0.4,0,0.8-0.3,0.8-0.8s-0.3-0.8-0.8-0.8h-2.9c1.1-2.9,3.2-4.4,6.3-4.5c0.1,0,0.3,0,0.4,0
			c4.6,0,9.7,2.9,11.3,4.3C192.1,12.4,191,13,189.4,13.8z"/>
		<path class="st0" d="M79.6,16.4c0.4,1.8,1.9,3.4,3.7,3.6C82.1,18.6,81.2,17.5,79.6,16.4z"/>
		<path class="st0" d="M117.4,6.9c1.1,1.5,1.9,2.8,3.4,4C120.5,9.1,119.2,7.3,117.4,6.9z"/>
	</g>
</g>
</svg>
